<?xml version="1.0" standalone="no"?>
<!DOCTYPE svg PUBLIC "-//W3C//DTD SVG 20010904//EN"
 "http://www.w3.org/TR/2001/REC-SVG-20010904/DTD/svg10.dtd">
<svg version="1.0" xmlns="http://www.w3.org/2000/svg"
 width="336.000000pt" height="143.000000pt" viewBox="0 0 336.000000 143.000000"
 preserveAspectRatio="xMidYMid meet">

<g transform="translate(0.000000,143.000000) scale(0.100000,-0.100000)"
fill="#000000" stroke="none">
<path fill="#258B1D" d="M1434 1257 c-2 -7 -3 -89 -2 -182 l3 -170 178 -3 177 -2 0 185 0 185
-175 0 c-134 0 -177 -3 -181 -13z"/>
<path fill="#258B1D" d="M1857 1263 c-4 -3 -7 -87 -7 -185 l0 -178 180 0 180 0 0 185 0 185
-173 0 c-96 0 -177 -3 -180 -7z"/>
<path d="M256 828 c-12 -17 -16 -48 -16 -118 0 -128 4 -138 53 -151 58 -15
289 -8 310 10 24 19 25 242 1 265 -13 13 -43 16 -174 16 -153 0 -159 -1 -174
-22z m294 -123 l0 -95 -120 0 -120 0 0 88 c0 49 3 92 7 95 3 4 57 7 120 7
l113 0 0 -95z"/>
<path d="M690 699 l0 -150 33 3 c32 3 32 4 35 61 3 57 3 57 34 57 24 0 47 -14
99 -60 59 -53 72 -60 108 -60 23 0 41 4 41 8 0 5 -28 31 -62 58 l-63 49 40 5
c61 9 65 14 65 85 0 94 -2 95 -181 95 l-149 0 0 -151z m258 59 l3 -38 -95 0
-96 0 0 40 0 41 93 -3 92 -3 3 -37z"/>
<path d="M1082 721 c4 -173 -3 -166 177 -166 102 0 142 4 154 14 14 11 17 35
17 147 l0 134 -35 0 -35 0 0 -120 0 -121 -102 3 -103 3 -2 115 -1 115 -37 3
-37 3 4 -130z"/>
<path d="M1516 834 c-13 -12 -16 -39 -16 -133 0 -136 1 -139 79 -148 47 -5 51
-4 51 16 0 30 55 30 63 0 5 -20 10 -21 58 -16 60 7 76 19 85 65 6 32 6 32 -35
32 -34 0 -41 -3 -41 -20 0 -19 -7 -20 -95 -20 l-95 0 0 95 0 95 94 0 c86 0 94
-2 99 -21 4 -16 12 -20 39 -17 30 3 33 6 31 33 -4 49 -23 55 -169 55 -107 0
-136 -3 -148 -16z"/>
<path d="M1902 703 l3 -148 30 0 c29 0 30 1 33 57 l3 56 120 4 c138 4 139 4
139 90 0 86 -4 88 -181 88 l-150 0 3 -147z m253 57 l0 -35 -92 -3 -93 -3 0 41
0 41 93 -3 92 -3 0 -35z"/>
<path d="M2262 703 l3 -148 155 0 155 0 3 28 3 27 -125 0 -126 0 0 35 0 35 70
0 c68 0 70 1 70 25 0 24 -2 25 -70 25 l-70 0 0 35 0 35 120 0 120 0 0 25 0 25
-155 0 -156 0 3 -147z"/>
<path d="M2630 699 l0 -150 28 3 27 3 5 99 5 98 128 -102 c74 -58 135 -100
145 -98 15 3 17 21 20 151 l3 147 -30 0 -30 0 -3 -100 -3 -99 -125 99 c-73 58
-134 100 -147 100 -23 0 -23 -1 -23 -151z"/>
<path fill="#258B1D" d="M1437 503 c-4 -3 -7 -84 -7 -180 l0 -173 180 0 180 0 0 180 0 180
-173 0 c-96 0 -177 -3 -180 -7z"/>
<path fill="#258B1D" d="M1850 330 l0 -180 180 0 180 0 0 180 0 180 -180 0 -180 0 0 -180z"/>
</g>
</svg>
