<?xml version="1.0" standalone="no"?>
<!DOCTYPE svg PUBLIC "-//W3C//DTD SVG 20010904//EN"
 "http://www.w3.org/TR/2001/REC-SVG-20010904/DTD/svg10.dtd">
<svg version="1.0" xmlns="http://www.w3.org/2000/svg"
 width="1000.000000pt" height="750.000000pt" viewBox="0 0 1000.000000 750.000000"
 preserveAspectRatio="xMidYMid meet">

<g transform="translate(0.000000,750.000000) scale(0.100000,-0.100000)"
fill="#000000" stroke="none">
<path d="M0 3750 l0 -3750 5000 0 5000 0 0 3750 0 3750 -5000 0 -5000 0 0
-3750z m8630 0 l0 -2910 -3635 0 -3635 0 0 2910 0 2910 3635 0 3635 0 0 -2910z"/>
<path d="M1460 3750 l0 -2800 3535 0 3535 0 0 2800 0 2800 -3535 0 -3535 0 0
-2800z m6820 0 l0 -2560 -3285 0 -3285 0 0 2560 0 2560 3285 0 3285 0 0 -2560z"/>
<path d="M6080 5950 c-149 -10 -346 -29 -377 -37 l-23 -5 0 -1794 0 -1794 345
0 345 0 0 489 0 488 208 6 c221 6 321 21 481 72 336 107 630 358 761 650 85
190 115 363 107 635 -6 214 -21 320 -69 470 -61 191 -145 331 -278 460 -187
182 -442 296 -771 346 -124 18 -543 26 -729 14z m541 -650 c199 -16 332 -70
440 -179 75 -75 118 -154 150 -276 29 -108 32 -345 6 -450 -30 -119 -82 -210
-172 -301 -151 -153 -347 -220 -589 -199 l-86 7 0 698 0 699 58 4 c31 2 62 4
67 5 6 1 62 -3 126 -8z"/>
<path d="M2117 5828 c67 -69 150 -193 321 -480 214 -358 313 -556 694 -1388
l191 -415 -7 -530 c-5 -484 -10 -586 -31 -667 l-7 -28 407 0 408 0 -6 43 c-20
139 -28 367 -25 747 l3 425 73 170 c108 249 753 1591 829 1725 102 177 191
308 267 387 l69 73 -450 0 -449 0 -289 -622 c-159 -343 -313 -680 -343 -750
-31 -71 -58 -128 -61 -128 -3 0 -118 237 -256 528 -137 290 -297 627 -356 750
l-108 222 -467 0 -468 0 61 -62z"/>
<path d="M7250 2080 c-41 -41 -12 -100 49 -100 47 0 61 14 61 62 0 32 -4 40
-26 48 -38 15 -62 12 -84 -10z"/>
<path d="M5564 2038 c3 -29 6 -151 6 -270 l0 -218 55 0 55 0 0 270 0 270 -61
0 -62 0 7 -52z"/>
<path d="M7450 1820 l0 -270 60 0 60 0 0 74 c0 41 4 77 9 80 19 12 66 -17 136
-85 68 -66 76 -71 126 -75 63 -6 77 1 85 43 5 27 3 31 -24 36 -16 3 -65 36
-109 72 l-79 65 81 83 80 82 -70 3 -70 3 -65 -70 c-97 -105 -100 -102 -100 79
l0 150 -60 0 -60 0 0 -270z"/>
<path d="M2060 2045 c0 -3 54 -69 120 -147 l120 -141 0 -104 0 -103 60 0 60 0
0 100 0 101 108 120 c59 67 115 134 125 150 l19 29 -74 0 -75 0 -78 -100 c-42
-55 -80 -100 -84 -99 -3 0 -40 45 -81 99 l-75 99 -72 1 c-40 0 -73 -2 -73 -5z"/>
<path d="M4934 2019 c3 -17 6 -130 6 -250 l0 -219 60 0 60 0 0 79 0 79 138 -5
c124 -5 142 -4 184 15 65 28 83 65 83 167 -1 90 -12 117 -58 145 -29 18 -52
20 -256 20 l-223 0 6 -31z m395 -72 c33 -41 19 -140 -22 -151 -12 -3 -73 -6
-134 -6 l-113 0 0 85 0 85 129 0 c95 0 131 -3 140 -13z"/>
<path d="M6894 1998 c-8 -48 -12 -54 -41 -63 -30 -8 -33 -13 -33 -47 0 -37 1
-38 35 -38 l35 0 0 -115 c0 -127 9 -158 51 -175 28 -12 211 -11 223 1 3 3 3
20 0 37 -6 32 -7 32 -69 32 -98 0 -95 -3 -95 116 l0 104 90 0 90 0 0 40 0 40
-90 0 -90 0 0 60 0 60 -48 0 -48 0 -10 -52z"/>
<path d="M2664 1916 c-3 -8 -4 -26 -2 -41 l3 -27 158 1 157 2 0 -38 0 -38
-137 3 c-87 2 -146 -1 -164 -8 -62 -26 -77 -137 -25 -189 l26 -26 210 -1 210
0 0 130 c-1 150 -10 204 -41 229 -18 15 -45 17 -205 17 -150 0 -186 -3 -190
-14z m316 -246 l0 -41 -117 3 c-115 3 -118 4 -121 26 -7 49 -1 52 123 52 l115
0 0 -40z"/>
<path d="M3163 1878 c13 -29 52 -115 87 -190 l63 -138 72 0 71 0 81 163 c44
89 83 174 87 190 l6 27 -63 0 -63 0 -57 -135 c-31 -74 -57 -140 -57 -147 0 -7
-27 52 -59 132 l-59 145 -66 3 -66 3 23 -53z"/>
<path d="M3680 1775 c0 -167 7 -197 49 -214 16 -7 99 -10 214 -9 l187 2 0 188
0 188 -60 0 -60 0 0 -150 0 -150 -94 0 c-52 0 -101 3 -110 6 -14 5 -16 28 -16
150 l0 144 -55 0 -55 0 0 -155z"/>
<path d="M4220 1890 l0 -40 118 0 117 -1 -128 -122 c-103 -99 -127 -127 -127
-149 l0 -28 229 0 c127 0 232 4 235 9 3 5 1 23 -5 40 l-11 30 -137 3 -138 3
133 120 c109 98 133 125 134 148 l0 27 -210 0 -210 0 0 -40z"/>
<path d="M5795 1919 c-4 -6 -4 -25 -1 -42 l6 -32 157 0 158 0 3 -35 3 -35
-151 3 -151 3 -29 -30 c-26 -26 -30 -37 -30 -85 0 -44 5 -61 24 -83 l24 -28
211 -1 211 -1 0 154 c0 160 -9 203 -45 217 -29 11 -383 7 -390 -5z m325 -249
l0 -40 -109 0 c-60 0 -116 3 -125 6 -16 6 -22 54 -9 67 3 4 60 7 125 7 l118 0
0 -40z"/>
<path d="M6335 1906 c-21 -21 -25 -35 -25 -86 0 -51 4 -65 25 -85 23 -24 29
-25 163 -25 154 0 170 -6 158 -56 l-7 -27 -159 6 -159 5 -12 -35 c-9 -29 -9
-37 2 -44 8 -5 103 -8 212 -7 195 3 199 3 218 27 30 37 27 141 -5 178 -24 28
-25 28 -173 33 l-148 5 0 25 0 25 160 2 160 2 0 38 0 38 -193 3 -192 2 -25
-24z"/>
<path d="M7240 1740 l0 -190 55 0 55 0 0 190 0 190 -55 0 -55 0 0 -190z"/>
</g>
</svg>
